# xmcd CD database file
#
# Track frame offsets:
#	150
#	17166
#	46514
#	66125
#	81119
#	100171
#	112289
#	133766
#	147904
#	173559
#	195728
#	211978
#
# Disc length: 2978 seconds
#
# Revision: 1
# Processed by: cddbd v1.4PL0 Copyright (c) Steve Scherf et al.
# Submitted via: CDex 1.50Beta6
#
DISCID=a50ba00c
DTITLE=Catfish Keith - Twist It, Babe
DYEAR=1997
DGENRE=Blues
TTITLE0=What Fun We're Havin' in Illinois
TTITLE1=Eagle Bird
TTITLE2=Walk Across the Ocean
TTITLE3=Brownskin Gal
TTITLE4=One Kind Favor
TTITLE5=Your Biscuits Are Big Enough For Me
TTITLE6=Long-Haired Doney
TTITLE7=Jack, I'm Mellow
TTITLE8=Dark Was the Night, Cold Was the Ground
TTITLE9=Twist It, Babe
TTITLE10=Keep Your Lamp Trimmed and Burning
TTITLE11=Back in Nagasaki
EXTD=Fish Tail RecordsFTRCD005\n1998 YEAR: 1997
EXTT0=
EXTT1=
EXTT2=
EXTT3=
EXTT4=
EXTT5=
EXTT6=
EXTT7=
EXTT8=
EXTT9=
EXTT10=
EXTT11=
PLAYORDER=
